<svg xmlns="http://www.w3.org/2000/svg" viewBox="0 0 100 100" width="100" height="100" aria-hidden="true">
  <path d="M88.967 50.963c2.916.808 4.982 2.775 4.982 2.775s-2.305-1.107-5.221-1.917c-1.112-.308-2.17-.465-3.046-.565.043.553.068 1.109.068 1.671 0 14.986-15.854 27.136-35.409 27.136-19.556 0-35.408-12.149-35.408-27.136 0-.577.026-1.148.072-1.716-.946.099-2.165.252-3.458.61-2.915.81-5.22 1.917-5.22 1.917s2.066-1.967 4.983-2.775c1.429-.396 2.767-.544 3.774-.542.101-.844.251-1.676.45-2.495-.904-.073-1.91-.114-2.973-.066-3.982.177-7.266.918-7.266.918s3.232-1.913 7.213-2.09c1.203-.054 2.333.004 3.326.126.626-2.086 1.567-4.08 2.78-5.951-.395-.548-.766-1.16-1.104-1.844-2.981-6.039-6.504-15.734-2.99-18.494 3.227-2.533 11.699 3.609 17.587 9.134 5.325-2.456 11.563-3.87 18.231-3.87 6.478 0 12.547 1.334 17.77 3.662 5.878-5.471 14.178-11.428 17.364-8.926 3.514 2.76-.009 12.455-2.99 18.494-.236.48-.491.923-.757 1.335 1.364 1.997 2.413 4.139 3.098 6.39.823-.071 1.721-.098 2.662-.056 3.981.178 7.214 2.09 7.214 2.09s-3.285-.741-7.266-.918c-.806-.036-1.579-.021-2.3.02.205.835.359 1.686.462 2.548.955.034 2.128.191 3.372.535zm-28.887 6.42c-1.334 1.625-2.926 2.547-4.88 2.58-2.02.033-3.676-.887-4.995-2.382-.585.494-2.715 2.177-4.581 2.206-1.736.027-5.773-2.404-5.773-2.404-.292.841 1.376 1.836 1.828 2.267.412 3.946 1.463 8.207 4.037 11.398.369-.227.593-.365.961-.593.079.759.139 1.354.195 1.897 2.198 2.29 5.553 2.093 7.352.035v-1.813c.449.271.775.47 1.157.701 2.683-3.555 3.791-7.569 3.935-11.786.261-.71 1.169-1.026.764-2.106z"/>
</svg>
