<svg xmlns="http://www.w3.org/2000/svg" viewBox="0 0 512 512" width="800" height="800" aria-hidden="true">
  <path fill="#000" d="M478.692 390.482c-24.021-17.755-44.122-43.384-59.084-69.628 5.778-11.455 9.292-25.008 9.292-41.271 0-110.891-119.95-169.742-208.277-179.275-21.461-2.313-41.329-5.943-58.454-9.78 2.594-4.7 4.203-10.022 4.203-15.766 0-18.119-14.697-32.816-32.817-32.816-17.796 0-32.202 14.199-32.716 31.863-31.232 2.147-93.599 30.297-97.363 41.603-3.837 11.572-11.414 17.026 23.176 46.228 0 0 89.04 37.906 110.294 50.041 31.689 18.112 3.398 59.979-26.028 66.768-29.418 6.788-42.995 36.214-24.892 54.318 9.052 9.052 3.208-21.476 11.314-6.789 8.115 14.68 13.577 0 13.577 0s1.8-28.348 22.637-29.418c44.132-2.263 56.582-40.74 80.346 19.23 13.179 33.272 6.789 61.115 27.155 81.481 45.266 45.266 2.263 45.266-15.84 45.266s-44.487 13.022-31.681 22.621c9.052 6.797 4.526 4.534 33.944 4.534h70.158s11.314-18.112-2.263-33.952c-13.577-15.84-1.682-33.016 4.526-42.996 5.794-9.3 64.107-13.884 100.322-46.675 9.599 14.738 20.167 27.594 30.943 35.352 23.724 17.092 44.479 30.339 48.732 41.164 9.349 23.831-38.545 34.234-150.579 35.792-10.179 0-14.141 11.314-4.526 11.314 174.092.001 155.989-40.732 103.933-79.209z"/>
</svg>
